<mxfile host="app.diagrams.net" modified="2024-02-12T10:23:43.229Z" agent="Mozilla/5.0 (Windows NT 10.0; Win64; x64) AppleWebKit/537.36 (KHTML, like Gecko) Chrome/115.0.0.0 Safari/537.36 OPR/101.0.0.0" version="23.1.2" etag="4RugPKf_N9UrTOd9U7ba" type="github">
  <diagram name="Страница — 1" id="VajsNGLzAMvgWJOwxqG5">
    <mxGraphModel>
      <root>
        <mxCell id="0" />
        <mxCell id="1" parent="0" />
      </root>
    </mxGraphModel>
  </diagram>
</mxfile>
